Dual Audio
Italiano
English
 
http://img28.imageshack.us/i/1983suddenimpact720pita.png/
 
http://img163.imageshack.us/i/1983suddenimpact720pita.png/
 
http://img716.imageshack.us/i/1983suddenimpact720pita.png/

General
Format                           : Matroska
File size                        : 4.53 GiB
Duration                         : 1h 57mn
Overall bit rate                 : 5 534 Kbps
Encoded date                     : UTC 2010-02-26 15:13:22
Writing application              : mkvmerge v3.2.0 ('Beginnings') built on Feb 12 2010 19:15:55
Writing library                  : libebml v0.7.8 + libmatroska v0.8.1

Video
ID                               : 1
Format                           : AVC
Format/Info                      : Advanced Video Codec
Format profile                   : High@L5.1
Format settings, CABAC           : Yes
Format settings, ReFrames        : 5 frames
Muxing mode                      : Container profile=Unknown@5.1
Codec ID                         : V_MPEG4/ISO/AVC
Duration                         : 1h 57mn
Bit rate                         : 4 592 Kbps
Nominal bit rate                 : 4 700 Kbps
Width                            : 1 280 pixels
Height                           : 528 pixels
Display aspect ratio             : 2.40:1
Frame rate                       : 23.976 fps
Resolution                       : 8 bits
Colorimetry                      : 4:2:0
Scan type                        : Progressive
Bits/(Pixel*Frame)               : 0.283
Stream size                      : 3.75 GiB (83%)


Audio #1
ID                               : 2
Format                           : AC-3
Format/Info                      : Audio Coding 3
Codec ID                         : A_AC3
Duration                         : 1h 57mn
Bit rate mode                    : Constant
Bit rate                         : 192 Kbps
Channel(s)                       : 2 channels
Channel positions                : L R
Sampling rate                    : 48.0 KHz
Video delay                      : 12ms
Stream size                      : 161 MiB (3%)
Language                         : Italian

Audio #2
ID                               : 3
Format                           : AC-3
Format/Info                      : Audio Coding 3
Codec ID                         : A_AC3
Duration                         : 1h 57mn
Bit rate mode                    : Constant
Bit rate                         : 640 Kbps
Channel(s)                       : 6 channels
Channel positions                : Front: L C R, Surround: L R, LFE
Sampling rate                    : 48.0 KHz
Stream size                      : 536 MiB (12%)